<?xml version="1.0" encoding="UTF-8" standalone="no"?>
<!DOCTYPE svg PUBLIC "-//W3C//DTD SVG 1.1//EN" "http://www.w3.org/Graphics/SVG/1.1/DTD/svg11.dtd">
<!-- Created with Vectornator (http://vectornator.io/) -->
<svg height="100%" stroke-miterlimit="10" style="fill-rule:nonzero;clip-rule:evenodd;stroke-linecap:round;stroke-linejoin:round;" version="1.1" viewBox="0 0 419.58 297.675" width="100%" xml:space="preserve" xmlns="http://www.w3.org/2000/svg" xmlns:vectornator="http://vectornator.io" xmlns:xlink="http://www.w3.org/1999/xlink">
<defs/>
<g id="Layer-1" vectornator:layerName="Layer 1">
<path d="M133.629 144.014C133.257 95.7701 164.859 48.7592 205.774 48.7592C246.688 48.7592 279.855 89.3223 279.855 139.36C279.855 189.397 250.697 231.117 209.783 231.117C168.869 231.117 134.014 194.05 133.629 144.014Z" fill="#f2ece9" fill-rule="nonzero" opacity="1" stroke="none"/>
<path d="M163.388 155.934C163.388 141.2 173.992 126.868 181.829 119.986C189.665 113.104 199.122 110.809 206.718 110.809C216.479 110.809 230.756 117.075 238.747 126.39C246.921 135.92 250.546 150.907 250.546 163.018C250.546 178.068 243.147 194.042 231.178 202.942C224.102 208.204 214.278 211.17 206.942 211.17C202.22 211.17 197.736 211.271 191.087 208.49C184.439 205.709 173.029 194.893 168.232 185.495C163.872 176.955 163.388 164.608 163.388 155.934Z" fill="#f49f17" fill-rule="nonzero" opacity="1" stroke="none"/>
<path d="M197.392 211.088C197.392 217.313 205.922 223.012 202.553 230.314C199.723 236.447 164.608 247.146 166.876 249.544C167.909 250.636 173.51 251.011 188.908 248.282C191.626 247.801 198.596 245.994 204.352 245.966C208.215 245.948 212.123 247.887 215.837 248.286C220.768 248.815 225.197 247.793 227.164 247.234C231.369 246.04 243.677 250.418 249.297 249.157C254.917 247.896 237.708 243.345 229.753 240.626C223.276 238.412 210.675 233.294 209.095 229.773C206.579 224.167 216.999 218.369 216.999 211.729" fill="#f49f17" fill-rule="nonzero" opacity="1" stroke="#eba246" stroke-linecap="round" stroke-linejoin="round" stroke-width="0.13095"/>
<path d="M221.377 209.942C221.377 211.34 223.457 211.044 222.816 213.454C222.245 215.6 221.371 217.661 221.132 219.836C220.941 221.571 221.557 223.044 222.597 223.165C224.437 223.379 224.735 221.218 225.106 220.22C225.582 218.934 224.919 215.212 224.265 213.067C223.58 210.816 224.356 210.279 224.356 208.855" fill="#f49f17" fill-rule="nonzero" opacity="1" stroke="none"/>
<path d="M164.947 151.051C167.11 141.69 176.955 122.788 192.552 116.203C198.38 113.742 204.007 112.104 213.289 113.731C225.46 115.866 234.69 123.971 232.148 125.282C231.313 125.712 228.548 128.439 225.166 128.334C218.28 128.12 214.254 122.125 201.877 126.09C189.114 130.179 186.043 138.214 183.082 142.165C174.387 153.768 163.444 157.555 164.947 151.051Z" fill="#ffffff" fill-opacity="0.42" fill-rule="nonzero" opacity="1" stroke="none"/>
<path d="M249.64 154.114C249.635 156.94 250.021 161.622 249.378 166.596C247.84 178.493 242.418 192.88 232.958 200.815C230.385 202.973 225.788 206.609 220.747 208.604C216.364 210.338 211.104 210.868 206.718 211.02C201.692 211.193 198.981 211.959 190.585 207.93C181.39 203.518 179.5 197.798 181.167 197.42C192.2 194.915 207.053 192.527 215.55 183.944C225.582 173.811 231.485 156.637 232.571 154.217C238.465 141.091 249.651 147.452 249.64 154.114Z" fill="#ffffff" fill-opacity="0.53" fill-rule="nonzero" opacity="1" stroke="none"/>
<path d="M202.056 238.204C205.401 238.204 214.125 238.462 217.445 238.462C218.054 238.462 234.51 241.541 233.71 242.645C233.309 243.197 225.104 242.664 222.306 242.755C219.078 242.86 211.938 242.907 211.235 242.961C205.009 243.438 202.95 243.71 196.719 243.891C181.394 244.335 187.794 238.894 196.027 238.805" fill="#ffffff" fill-opacity="0.29" fill-rule="nonzero" opacity="1" stroke="none"/>
<path d="M216.326 243.841C217.321 243.841 219.917 243.932 220.904 243.932C221.085 243.932 225.981 245.015 225.743 245.403C225.624 245.597 223.183 245.409 222.35 245.441C221.39 245.478 219.266 245.495 219.057 245.514C217.205 245.682 216.592 245.777 214.738 245.841C210.179 245.997 212.083 244.084 214.533 244.053" fill="#ffffff" fill-opacity="0.29" fill-rule="nonzero" opacity="1" stroke="none"/>
<path d="M238.73 247.104C237.825 246.983 235.479 246.562 234.58 246.442C234.415 246.42 230.142 244.573 230.424 244.153C230.565 243.943 232.755 244.457 233.517 244.521C234.397 244.595 236.333 244.835 236.526 244.838C238.24 244.87 238.814 244.834 240.511 244.986C244.686 245.36 242.632 247.34 240.398 247.078" fill="#ffffff" fill-opacity="0.29" fill-rule="nonzero" opacity="1" stroke="none"/>
<path d="M198.491 236.083C199.033 235.631 201.123 235.457 202.835 232.409C204.547 229.36 204.604 228.955 204.742 229.359C204.811 229.561 206.77 232.929 204.109 234.87C201.472 236.793 196.98 237.335 198.292 236.2" fill="#ffffff" fill-opacity="0.29" fill-rule="nonzero" opacity="1" stroke="none"/>
<path d="M221.946 221.336C221.971 221.35 221.86 220.25 222.132 219.37C222.624 217.78 223.581 215.259 223.858 215.347C224.072 215.415 223.586 217.257 223.446 219.523C223.342 221.204 224.158 221.599 223.817 222.012C223.476 222.425 221.949 222.468 221.99 221.336" fill="#ffffff" fill-opacity="0.29" fill-rule="nonzero" opacity="1" stroke="none"/>
<path d="M184.982 241.861C183.498 241.861 181.338 243.431 177.206 245.139C176.295 245.515 175.442 246.036 174.306 246.394C171.916 247.146 170.851 248.451 170.8 249.069C170.717 250.082 180.394 248.92 182.372 248.835C183.631 248.781 177.758 247.767 179.554 246.471C181.73 244.902 184.902 241.857 184.951 241.758" fill="#ffffff" fill-opacity="0.29" fill-rule="nonzero" opacity="1" stroke="none"/>
<path d="M162.521 161.122C162.521 132.975 182.309 110.158 206.718 110.158C231.128 110.158 250.915 132.975 250.915 161.122C250.915 189.268 231.128 212.085 206.718 212.085C182.309 212.085 162.521 189.268 162.521 161.122Z" fill="none" opacity="1" stroke="#eba246" stroke-linecap="butt" stroke-linejoin="round" stroke-width="2.08077"/>
<path d="M200.867 212.33" fill="none" opacity="1" stroke="#eba246" stroke-linecap="butt" stroke-linejoin="round" stroke-width="2.08077"/>
</g>
</svg>
