<?xml version="1.0" encoding="UTF-8" standalone="no"?>
<!DOCTYPE svg PUBLIC "-//W3C//DTD SVG 1.1//EN" "http://www.w3.org/Graphics/SVG/1.1/DTD/svg11.dtd">
<!-- Created with Vectornator (http://vectornator.io/) -->
<svg height="100%" stroke-miterlimit="10" style="fill-rule:nonzero;clip-rule:evenodd;stroke-linecap:round;stroke-linejoin:round;" version="1.1" viewBox="0 0 419.58 297.675" width="100%" xml:space="preserve" xmlns="http://www.w3.org/2000/svg" xmlns:vectornator="http://vectornator.io" xmlns:xlink="http://www.w3.org/1999/xlink">
<defs/>
<g id="Layer-1" vectornator:layerName="Layer 1">
<path d="M133.629 144.014C133.257 95.7701 164.859 48.7592 205.774 48.7592C246.688 48.7592 279.855 89.3223 279.855 139.36C279.855 189.397 250.697 231.117 209.783 231.117C168.869 231.117 134.014 194.05 133.629 144.014Z" fill="#f2ece9" fill-rule="nonzero" opacity="1" stroke="none" vectornator:layerName="path"/>
<path d="M163.388 155.934C163.388 141.2 173.992 126.868 181.829 119.986C189.665 113.104 199.122 110.809 206.718 110.809C216.479 110.809 230.756 117.075 238.747 126.39C246.921 135.92 250.546 150.907 250.546 163.018C250.546 178.068 243.147 194.042 231.178 202.942C224.102 208.204 214.278 211.17 206.942 211.17C202.22 211.17 197.736 211.271 191.087 208.49C184.439 205.709 173.029 194.893 168.232 185.495C163.872 176.955 163.388 164.608 163.388 155.934Z" fill="#f4c67c" fill-rule="nonzero" opacity="1" stroke="none" vectornator:layerName="path"/>
<path d="M162.521 161.122C162.521 132.975 182.309 110.158 206.718 110.158C231.128 110.158 250.915 132.975 250.915 161.122C250.915 189.268 231.128 212.085 206.718 212.085C182.309 212.085 162.521 189.268 162.521 161.122Z" fill="none" opacity="1" stroke="#f4c67c" stroke-linecap="butt" stroke-linejoin="round" stroke-width="2.08077" vectornator:layerName="path"/>
</g>
</svg>
