<?xml version="1.0" encoding="UTF-8" standalone="no"?>
<!DOCTYPE svg PUBLIC "-//W3C//DTD SVG 1.1//EN" "http://www.w3.org/Graphics/SVG/1.1/DTD/svg11.dtd">
<!-- Created with Vectornator (http://vectornator.io/) -->
<svg height="100%" stroke-miterlimit="10" style="fill-rule:nonzero;clip-rule:evenodd;stroke-linecap:round;stroke-linejoin:round;" version="1.1" viewBox="0 0 419.58 297.675" width="100%" xml:space="preserve" xmlns="http://www.w3.org/2000/svg" xmlns:vectornator="http://vectornator.io" xmlns:xlink="http://www.w3.org/1999/xlink">
<defs/>
<g id="Layer-1" vectornator:layerName="Layer 1">
<path d="M133.629 144.014C133.257 95.7701 164.859 48.7592 205.774 48.7592C246.688 48.7592 279.855 89.3223 279.855 139.36C279.855 189.397 250.697 231.117 209.783 231.117C168.869 231.117 134.014 194.05 133.629 144.014Z" fill="#f2ece9" fill-rule="nonzero" opacity="1" stroke="none" vectornator:layerName="path"/>
<path d="M163.388 155.934C163.388 141.2 173.992 126.868 181.829 119.986C189.665 113.104 199.122 110.809 206.718 110.809C216.479 110.809 230.756 117.075 238.747 126.39C246.921 135.92 250.546 150.907 250.546 163.018C250.546 178.068 243.147 194.042 231.178 202.942C224.102 208.204 214.278 211.17 206.942 211.17C202.22 211.17 197.736 211.271 191.087 208.49C184.439 205.709 173.029 194.893 168.232 185.495C163.872 176.955 163.388 164.608 163.388 155.934Z" fill="#f49f17" fill-rule="nonzero" opacity="1" stroke="none" vectornator:layerName="path"/>
<path d="M164.947 151.051C167.11 141.69 176.955 122.788 192.552 116.203C198.38 113.742 204.007 112.104 213.289 113.731C225.46 115.866 234.69 123.971 232.148 125.282C231.313 125.712 228.548 128.439 225.166 128.334C218.28 128.12 214.254 122.125 201.877 126.09C189.114 130.179 186.043 138.214 183.082 142.165C174.387 153.768 163.444 157.555 164.947 151.051Z" fill="#ffffff" fill-opacity="0.42" fill-rule="nonzero" opacity="1" stroke="none" vectornator:layerName="path"/>
<path d="M249.64 154.114C249.635 156.94 250.021 161.622 249.378 166.596C247.84 178.493 242.418 192.88 232.958 200.815C230.385 202.973 225.788 206.609 220.747 208.604C216.364 210.338 211.104 210.868 206.718 211.02C201.692 211.193 198.981 211.959 190.585 207.93C181.39 203.518 179.5 197.798 181.167 197.42C192.2 194.915 207.053 192.527 215.55 183.944C225.582 173.811 231.485 156.637 232.571 154.217C238.465 141.091 249.651 147.452 249.64 154.114Z" fill="#ffffff" fill-opacity="0.53" fill-rule="nonzero" opacity="1" stroke="none" vectornator:layerName="path"/>
<path d="M162.521 161.122C162.521 132.975 182.309 110.158 206.718 110.158C231.128 110.158 250.915 132.975 250.915 161.122C250.915 189.268 231.128 212.085 206.718 212.085C182.309 212.085 162.521 189.268 162.521 161.122Z" fill="none" opacity="1" stroke="#eba246" stroke-linecap="butt" stroke-linejoin="round" stroke-width="2.08077" vectornator:layerName="path"/>
</g>
</svg>
